# xmcd CD database file
#
# Track frame offsets:
#	182
#	13002
#	24662
#	36212
#	50120
#	61810
#	73365
#	87255
#	102005
#	114482
#	127087
#	138695
#	150727
#	164300
#	178320
#	191925
#
# Disc length: 2772 seconds
#
# Revision: 2
# Processed by: cddbd v1.5.1PL0 Copyright (c) Steve Scherf et al.
# Submitted via: CDex 1.51
#
DISCID=ee0ad210
DTITLE=Solomon Burke - The Very Best Of Solomon Burke
DYEAR=1998
DGENRE=Soul
TTITLE0=Just Out Of Reach (Of My Two Open Arms)
TTITLE1=Cry To Me
TTITLE2=Down In The Valley
TTITLE3=I'm Hanging Up My Heart For You
TTITLE4=If You Need Me
TTITLE5=Can't Nobody Love You
TTITLE6=You're Good For Me
TTITLE7=Goodbye Baby (Baby Goodbye)
TTITLE8=Everybody Needs Somebody To Love
TTITLE9=The Price
TTITLE10=Got To Get You Off My Mind
TTITLE11=Tonight's The Night
TTITLE12=Someone Is Watching
TTITLE13=Take Me (Just As I Am)
TTITLE14=I Wish I Knew (How It Would Feel To Be Free)
TTITLE15=Soul Meeting
EXTD=YEAR: 1998
EXTT0=
EXTT1=
EXTT2=
EXTT3=
EXTT4=
EXTT5=
EXTT6=
EXTT7=
EXTT8=
EXTT9=
EXTT10=
EXTT11=
EXTT12=
EXTT13=
EXTT14=
EXTT15=
PLAYORDER=
